# xmcd
#
# Track frame offsets: 
#        150
#        14052
#        26750
#        39390
#        54625
#        67577
#        79372
#        93945
#        107885
#        121442
#        140092
#        152190
#        171882
#        183765
#        198215
#        218432
#        257100
#        269622
#        308367
#        322610
#        334282
#
# Disc length: 4629 seconds
#
# Revision: 10
# Processed by: cddbd v1.5.2PL0 Copyright (c) Steve Scherf et al.
# Submitted via: ExactAudioCopy v0.95b4
#
DISCID=22121315
DTITLE=Various Artist - Small GroupsTriumphs of  Jazz Vol. 19
DYEAR=2000
DGENRE=Jazz
TTITLE0=Jones and Smith Inc - Oh! Lady, Be Good - 1936
TTITLE1=Kansas City Six - I want a little girl - 1938
TTITLE2=Eddie Lang and Joe Venuti - Stringin' the blues - 1926
TTITLE3=Benny Goodman Trio - Moonglow - 1936
TTITLE4=Benny Goodman Sextet - Good enough to keep - 1940
TTITLE5=John Kirby Sextet - Rose room - 1939
TTITLE6=Tommy Dorsey's Clambake Seven - Don't be a baby, baby - 1946
TTITLE7=Stuff Smith and His Onyx Club Boys - You' se a viper - 1936
TTITLE8=Coleman Hawkins All Star Jam Band - Crazy rhythm - 1937
TTITLE9=Edmond Hall Celeste Quartet - Profoundly blue - 1941
TTITLE10=Cozy Cole All Stars - Stompin' at the Savoy - 1944
TTITLE11=Louis Prima and His Orchestra - Just a gigolo - 1944
TTITLE12=Louis Jordan and His Orchestra - Is you is or is you ain't my b
TTITLE12=aby - 1943
TTITLE13=Slim Gaillard and His Orchestra - Slim's Jam - 1949
TTITLE14=Red Norvo and His Selected Sextet - Slam Slam Blues - 1945
TTITLE15=Esquire All Stars - Flyin' on a v disc - 1944
TTITLE16=Kenny Clarke and His 52nd Street Boys - 52nd street theme - 194
TTITLE16=6
TTITLE17=Jazz At The Philharmonic - Blues for Norman - 1946
TTITLE18=Theloniuos Monk Quintet - Round midnight - 1947
TTITLE19=Fats Navarro Quintet - Move - 1948
TTITLE20=Bud Powell's Modernists - Dance of the infidels - 1848
EXTD=YEAR: 2000
EXTT0=
EXTT1=
EXTT2=
EXTT3=
EXTT4=
EXTT5=
EXTT6=
EXTT7=
EXTT8=
EXTT9=
EXTT10=
EXTT11=
EXTT12=
EXTT13=
EXTT14=
EXTT15=
EXTT16=
EXTT17=
EXTT18=
EXTT19=
EXTT20=
PLAYORDER=
